<svg width="36" height="36" viewBox="0 0 36 36" fill="none" xmlns="http://www.w3.org/2000/svg">
<g id="fa6-regular:face-meh" clip-path="url(#clip0_7_36)">
<path id="Vector" d="M32.625 18C32.625 21.8788 31.0842 25.5987 28.3414 28.3414C25.5987 31.0842 21.8788 32.625 18 32.625C14.1212 32.625 10.4013 31.0842 7.65856 28.3414C4.91584 25.5987 3.375 21.8788 3.375 18C3.375 14.1212 4.91584 10.4013 7.65856 7.65856C10.4013 4.91584 14.1212 3.375 18 3.375C21.8788 3.375 25.5987 4.91584 28.3414 7.65856C31.0842 10.4013 32.625 14.1212 32.625 18ZM18 0C13.2261 0 8.64773 1.89642 5.27208 5.27208C1.89642 8.64773 0 13.2261 0 18C0 22.7739 1.89642 27.3523 5.27208 30.7279C8.64773 34.1036 13.2261 36 18 36C22.7739 36 27.3523 34.1036 30.7279 30.7279C34.1036 27.3523 36 22.7739 36 18C36 13.2261 34.1036 8.64773 30.7279 5.27208C27.3523 1.89642 22.7739 0 18 0ZM12.4031 16.875C12.9999 16.875 13.5722 16.6379 13.9941 16.216C14.4161 15.794 14.6531 15.2217 14.6531 14.625C14.6531 14.0283 14.4161 13.456 13.9941 13.034C13.5722 12.6121 12.9999 12.375 12.4031 12.375C11.8064 12.375 11.2341 12.6121 10.8121 13.034C10.3902 13.456 10.1531 14.0283 10.1531 14.625C10.1531 15.2217 10.3902 15.794 10.8121 16.216C11.2341 16.6379 11.8064 16.875 12.4031 16.875ZM25.9031 14.625C25.9031 14.0283 25.6661 13.456 25.2441 13.034C24.8222 12.6121 24.2499 12.375 23.6531 12.375C23.0564 12.375 22.4841 12.6121 22.0621 13.034C21.6402 13.456 21.4031 14.0283 21.4031 14.625C21.4031 15.2217 21.6402 15.794 22.0621 16.216C22.4841 16.6379 23.0564 16.875 23.6531 16.875C24.2499 16.875 24.8222 16.6379 25.2441 16.216C25.6661 15.794 25.9031 15.2217 25.9031 14.625ZM12.9375 23.0625C12.0023 23.0625 11.25 23.8148 11.25 24.75C11.25 25.6852 12.0023 26.4375 12.9375 26.4375H23.0625C23.9977 26.4375 24.75 25.6852 24.75 24.75C24.75 23.8148 23.9977 23.0625 23.0625 23.0625H12.9375Z" fill="#FBED72"/>
</g>
<defs>
<clipPath id="clip0_7_36">
<rect width="36" height="36" fill="white"/>
</clipPath>
</defs>
</svg>
