<svg width="38" height="38" viewBox="0 0 38 38" fill="none" xmlns="http://www.w3.org/2000/svg">
<g id="iconamoon:squinting-face">
<g id="Group">
<path id="Vector" d="M18.75 35.5C28.0008 35.5 35.5 28.0008 35.5 18.75C35.5 9.49923 28.0008 2 18.75 2C9.49923 2 2 9.49923 2 18.75C2 28.0008 9.49923 35.5 18.75 35.5Z" fill="white" stroke="#FFB187" stroke-width="3.5" stroke-linecap="round" stroke-linejoin="round"/>
<path id="Vector_2" d="M18.75 26.1944C21.5045 26.1944 23.9109 24.6981 25.1988 22.4722H12.3013C12.9548 23.6041 13.8948 24.544 15.0268 25.1974C16.1589 25.8508 17.443 26.1947 18.75 26.1944Z" fill="white" stroke="#FFB187" stroke-width="3.5" stroke-linecap="round" stroke-linejoin="round"/>
<g id="Vector_3">
<path d="M26.1944 15.9584L22.4722 14.0973L26.1944 12.2361M11.3055 15.9584L15.0278 14.0973L11.3055 12.2361" fill="white"/>
<path d="M26.1944 15.9584L22.4722 14.0973L26.1944 12.2361M11.3055 15.9584L15.0278 14.0973L11.3055 12.2361" stroke="#FFB187" stroke-width="3.5" stroke-linecap="round" stroke-linejoin="round"/>
</g>
</g>
</g>
</svg>
