<svg width="36" height="36" viewBox="0 0 36 36" fill="none" xmlns="http://www.w3.org/2000/svg">
<g id="fa6-regular:face-dizzy" clip-path="url(#clip0_2_78)">
<path id="Vector" d="M32.625 18C32.625 14.1212 31.0842 10.4013 28.3414 7.65856C25.5987 4.91584 21.8788 3.375 18 3.375C14.1212 3.375 10.4013 4.91584 7.65856 7.65856C4.91584 10.4013 3.375 14.1212 3.375 18C3.375 21.8788 4.91584 25.5987 7.65856 28.3414C10.4013 31.0842 14.1212 32.625 18 32.625C21.8788 32.625 25.5987 31.0842 28.3414 28.3414C31.0842 25.5987 32.625 21.8788 32.625 18ZM0 18C0 13.2261 1.89642 8.64773 5.27208 5.27208C8.64773 1.89642 13.2261 0 18 0C22.7739 0 27.3523 1.89642 30.7279 5.27208C34.1036 8.64773 36 13.2261 36 18C36 22.7739 34.1036 27.3523 30.7279 30.7279C27.3523 34.1036 22.7739 36 18 36C13.2261 36 8.64773 34.1036 5.27208 30.7279C1.89642 27.3523 0 22.7739 0 18ZM18 20.25C19.1935 20.25 20.3381 20.7241 21.182 21.568C22.0259 22.4119 22.5 23.5565 22.5 24.75C22.5 25.9435 22.0259 27.0881 21.182 27.932C20.3381 28.7759 19.1935 29.25 18 29.25C16.8065 29.25 15.6619 28.7759 14.818 27.932C13.9741 27.0881 13.5 25.9435 13.5 24.75C13.5 23.5565 13.9741 22.4119 14.818 21.568C15.6619 20.7241 16.8065 20.25 18 20.25ZM7.24219 9.49219C7.90312 8.83125 8.97187 8.83125 9.62578 9.49219L11.243 11.1094L12.8602 9.49219C13.5211 8.83125 14.5898 8.83125 15.2438 9.49219C15.8977 10.1531 15.9047 11.2219 15.2438 11.8758L13.6266 13.493L15.2438 15.1102C15.9047 15.7711 15.9047 16.8398 15.2438 17.4937C14.5828 18.1477 13.5141 18.1547 12.8602 17.4937L11.243 15.8766L9.62578 17.4937C8.96484 18.1547 7.89609 18.1547 7.24219 17.4937C6.58828 16.8328 6.58125 15.7641 7.24219 15.1102L8.85938 13.493L7.24219 11.8758C6.58125 11.2148 6.58125 10.1461 7.24219 9.49219ZM20.7422 9.49219C21.4031 8.83125 22.4719 8.83125 23.1258 9.49219L24.743 11.1094L26.3602 9.49219C27.0211 8.83125 28.0898 8.83125 28.7437 9.49219C29.3977 10.1531 29.4047 11.2219 28.7437 11.8758L27.1266 13.493L28.7437 15.1102C29.4047 15.7711 29.4047 16.8398 28.7437 17.4937C28.0828 18.1477 27.0141 18.1547 26.3602 17.4937L24.743 15.8766L23.1258 17.4937C22.4648 18.1547 21.3961 18.1547 20.7422 17.4937C20.0883 16.8328 20.0812 15.7641 20.7422 15.1102L22.3594 13.493L20.7422 11.8758C20.0812 11.2148 20.0812 10.1461 20.7422 9.49219Z" fill="#8294C4"/>
</g>
<defs>
<clipPath id="clip0_2_78">
<rect width="36" height="36" fill="white"/>
</clipPath>
</defs>
</svg>
