<svg width="10" height="14" viewBox="0 0 10 14" fill="none" xmlns="http://www.w3.org/2000/svg">
<path d="M4.27539 13.32C3.66206 13.32 3.10206 13.2733 2.59539 13.18C2.10206 13.0867 1.67539 12.9467 1.31539 12.76C0.955391 12.5733 0.675391 12.3467 0.475391 12.08C0.275391 11.8 0.175391 11.48 0.175391 11.12C0.175391 10.7467 0.282057 10.4333 0.495391 10.18C0.708724 9.92667 0.948724 9.72667 1.21539 9.58C1.58872 9.86 1.98872 10.1067 2.41539 10.32C2.84206 10.52 3.38206 10.62 4.03539 10.62C4.66206 10.62 5.10872 10.48 5.37539 10.2C5.64206 9.92 5.77539 9.58 5.77539 9.18C5.77539 8.79333 5.65539 8.47333 5.41539 8.22C5.18872 7.96667 4.78872 7.84 4.21539 7.84C3.85539 7.84 3.55539 7.88 3.31539 7.96C3.07539 8.04 2.80206 8.15333 2.49539 8.3C1.84206 8.27333 1.32206 8.1 0.935391 7.78C0.562057 7.44667 0.375391 6.94 0.375391 6.26C0.375391 6.22 0.375391 6.17333 0.375391 6.12C0.375391 6.05333 0.382057 5.92667 0.395391 5.74L0.635391 2.7C0.675391 2.12667 0.855391 1.67333 1.17539 1.34C1.49539 1.00667 1.94206 0.839999 2.51539 0.839999H8.27539C8.35539 0.986666 8.43539 1.18 8.51539 1.42C8.59539 1.66 8.63539 1.91333 8.63539 2.18C8.63539 2.68667 8.52206 3.04667 8.29539 3.26C8.06872 3.47333 7.78206 3.58 7.43539 3.58H3.59539L3.45539 5.46C3.70872 5.39333 3.96206 5.33333 4.21539 5.28C4.48206 5.22667 4.81539 5.2 5.21539 5.2C5.90872 5.2 6.50872 5.30667 7.01539 5.52C7.52206 5.72 7.93539 6 8.25539 6.36C8.58872 6.72 8.82872 7.14 8.97539 7.62C9.13539 8.1 9.21539 8.61333 9.21539 9.16C9.21539 9.70667 9.12206 10.2333 8.93539 10.74C8.74872 11.2467 8.45539 11.6933 8.05539 12.08C7.65539 12.4533 7.14206 12.7533 6.51539 12.98C5.90206 13.2067 5.15539 13.32 4.27539 13.32Z" fill="#B7B7B7"/>
</svg>
