<svg width="37" height="37" viewBox="0 0 37 37" fill="none" xmlns="http://www.w3.org/2000/svg">
<g id="hugeicons:star-face">
<g id="Group">
<path id="Vector" d="M35.5 18.75C35.5 28.001 28.001 35.5 18.75 35.5C9.49898 35.5 2 28.001 2 18.75M12.8875 3.05525C14.7629 2.35606 16.7485 1.99866 18.75 2C20.8119 2 22.7867 2.37353 24.6125 3.05525M11.2426 7.75028L12.127 9.53415C12.2476 9.78205 12.5692 10.0199 12.8406 10.0651L14.4436 10.3331C15.4687 10.5073 15.7099 11.2561 14.9712 11.9964L13.725 13.2527C13.6159 13.3762 13.5358 13.5226 13.4906 13.6812C13.4454 13.8397 13.4362 14.0063 13.4637 14.1689L13.8205 15.725C14.1019 16.9561 13.4536 17.4318 12.3733 16.7886L10.8708 15.8925C10.7173 15.812 10.5466 15.77 10.3733 15.77C10.2 15.77 10.0293 15.812 9.87585 15.8925L8.37337 16.7886C7.2997 17.4318 6.64645 16.9511 6.92785 15.725L7.28463 14.1689C7.31214 14.0063 7.30296 13.8397 7.25774 13.6812C7.21253 13.5226 7.13244 13.3762 7.02332 13.2527L5.77713 11.9964C5.04348 11.2561 5.27965 10.5057 6.30475 10.3348L7.90772 10.0668C8.05627 10.0325 8.19595 9.9673 8.31772 9.87555C8.43948 9.78379 8.54062 9.66748 8.61457 9.53415L9.49898 7.75028C9.98138 6.7838 10.7653 6.7838 11.2426 7.75028ZM27.9926 7.75028L28.877 9.53415C28.9976 9.78205 29.3192 10.0199 29.5906 10.0651L31.1936 10.3331C32.2187 10.5073 32.4599 11.2561 31.7212 11.9964L30.475 13.2527C30.3659 13.3762 30.2858 13.5226 30.2406 13.6812C30.1954 13.8397 30.1862 14.0063 30.2137 14.1689L30.5705 15.725C30.8519 16.9561 30.2037 17.4318 29.1233 16.7886L27.6208 15.8925C27.4673 15.812 27.2966 15.77 27.1233 15.77C26.95 15.77 26.7793 15.812 26.6258 15.8925L25.1234 16.7886C24.0497 17.4318 23.3965 16.9511 23.6779 15.725L24.0346 14.1689C24.0621 14.0063 24.053 13.8397 24.0077 13.6812C23.9625 13.5226 23.8824 13.3762 23.7733 13.2527L22.5271 11.9964C21.7935 11.2561 22.0296 10.5057 23.0547 10.3348L24.6577 10.0668C24.8066 10.0327 24.9466 9.96762 25.0686 9.87585C25.1907 9.78408 25.2921 9.66766 25.3662 9.53415L26.249 7.75028C26.7314 6.7838 27.5153 6.7838 27.9926 7.75028Z" stroke="#EF9595" stroke-width="2.8125" stroke-linecap="round" stroke-linejoin="round"/>
<path id="Vector_2" d="M12.0499 23.775C12.83 24.8151 13.8416 25.6594 15.0045 26.2408C16.1674 26.8223 17.4497 27.125 18.7499 27.125C20.0501 27.125 21.3324 26.8223 22.4953 26.2408C23.6583 25.6594 24.6698 24.8151 25.4499 23.775" stroke="#EF9595" stroke-width="2.8125" stroke-linecap="round" stroke-linejoin="round"/>
</g>
</g>
</svg>
