<svg width="36" height="36" viewBox="0 0 36 36" fill="none" xmlns="http://www.w3.org/2000/svg">
<g id="fa6-regular:face-tired" clip-path="url(#clip0_2_80)">
<path id="Vector" d="M32.625 18C32.625 14.1212 31.0842 10.4013 28.3414 7.65856C25.5987 4.91584 21.8788 3.375 18 3.375C14.1212 3.375 10.4013 4.91584 7.65856 7.65856C4.91584 10.4013 3.375 14.1212 3.375 18C3.375 21.8788 4.91584 25.5987 7.65856 28.3414C10.4013 31.0842 14.1212 32.625 18 32.625C21.8788 32.625 25.5987 31.0842 28.3414 28.3414C31.0842 25.5987 32.625 21.8788 32.625 18ZM0 18C0 13.2261 1.89642 8.64773 5.27208 5.27208C8.64773 1.89642 13.2261 0 18 0C22.7739 0 27.3523 1.89642 30.7279 5.27208C34.1036 8.64773 36 13.2261 36 18C36 22.7739 34.1036 27.3523 30.7279 30.7279C27.3523 34.1036 22.7739 36 18 36C13.2261 36 8.64773 34.1036 5.27208 30.7279C1.89642 27.3523 0 22.7739 0 18ZM12.4102 22.5211C13.7883 21.2414 15.7359 20.25 18 20.25C20.2641 20.25 22.2117 21.2414 23.5898 22.5211C24.9258 23.7727 25.875 25.4531 25.875 27C25.875 27.3797 25.6852 27.7312 25.3687 27.9422C25.0523 28.1531 24.6516 28.1813 24.3 28.0336L23.0906 27.5063C21.4875 26.8031 19.7508 26.4445 18 26.4445C16.2492 26.4445 14.5125 26.8102 12.9094 27.5063L11.7 28.0336C11.3555 28.1883 10.9477 28.1531 10.6312 27.9422C10.3148 27.7312 10.125 27.3797 10.125 27C10.125 25.4531 11.0742 23.7727 12.4102 22.5211ZM9.38672 10.3148L15.7078 13.6828C16.4602 14.0836 16.4602 15.1664 15.7078 15.5672L9.38672 18.9352C8.83125 19.2305 8.15625 18.8297 8.15625 18.1969C8.15625 18 8.22656 17.8102 8.35313 17.6625L10.8844 14.625L8.35313 11.5875C8.22656 11.4398 8.15625 11.25 8.15625 11.0531C8.15625 10.4203 8.83125 10.0195 9.38672 10.3148ZM27.8438 11.0461C27.8438 11.243 27.7734 11.4328 27.6469 11.5805L25.1156 14.618L27.6469 17.6555C27.7734 17.8031 27.8438 17.993 27.8438 18.1898C27.8438 18.8227 27.1688 19.2234 26.6133 18.9281L20.2922 15.5602C19.5398 15.1594 19.5398 14.0766 20.2922 13.6758L26.6133 10.3078C27.1688 10.0125 27.8438 10.4133 27.8438 11.0461Z" fill="#B0D9B1"/>
</g>
<defs>
<clipPath id="clip0_2_80">
<rect width="36" height="36" fill="white"/>
</clipPath>
</defs>
</svg>
