<svg width="36" height="36" viewBox="0 0 36 36" fill="none" xmlns="http://www.w3.org/2000/svg">
<g id="fa-regular:sad-tear">
<path id="Vector" d="M18 0C8.05645 0 0 8.05645 0 18C0 27.9435 8.05645 36 18 36C27.9435 36 36 27.9435 36 18C36 8.05645 27.9435 0 18 0ZM18 32.5161C9.99435 32.5161 3.48387 26.0056 3.48387 18C3.48387 9.99435 9.99435 3.48387 18 3.48387C26.0056 3.48387 32.5161 9.99435 32.5161 18C32.5161 26.0056 26.0056 32.5161 18 32.5161ZM18.5806 21.4839C17.6226 21.4839 16.8387 22.2677 16.8387 23.2258C16.8387 24.1839 17.6226 24.9677 18.5806 24.9677C20.3081 24.9677 21.9411 25.7298 23.0516 27.0581C23.6395 27.7694 24.7355 27.9218 25.5048 27.2831C26.2452 26.6661 26.3468 25.5702 25.7298 24.8298C23.9516 22.7032 21.346 21.4839 18.5806 21.4839ZM12.1935 16.8387C13.4782 16.8387 14.5161 15.8008 14.5161 14.5161C14.5161 13.2315 13.4782 12.1935 12.1935 12.1935C10.9089 12.1935 9.87097 13.2315 9.87097 14.5161C9.87097 15.8008 10.9089 16.8387 12.1935 16.8387ZM23.8065 12.1935C22.5218 12.1935 21.4839 13.2315 21.4839 14.5161C21.4839 15.8008 22.5218 16.8387 23.8065 16.8387C25.0911 16.8387 26.129 15.8008 26.129 14.5161C26.129 13.2315 25.0911 12.1935 23.8065 12.1935ZM11.7871 19.3645C10.9597 20.475 9.14516 23.0371 9.14516 24.3073C9.14516 25.9548 10.5097 27.2903 12.1935 27.2903C13.8774 27.2903 15.2419 25.9548 15.2419 24.3073C15.2419 23.0371 13.4274 20.475 12.6 19.3645C12.3968 19.096 11.9903 19.096 11.7871 19.3645Z" fill="#8294C4"/>
</g>
</svg>
