<svg width="36" height="36" viewBox="0 0 36 36" fill="none" xmlns="http://www.w3.org/2000/svg">
<g id="fa6-regular:face-smile" clip-path="url(#clip0_9_12)">
<path id="Vector" d="M32.625 18C32.625 14.1212 31.0842 10.4013 28.3414 7.65856C25.5987 4.91584 21.8788 3.375 18 3.375C14.1212 3.375 10.4013 4.91584 7.65856 7.65856C4.91584 10.4013 3.375 14.1212 3.375 18C3.375 21.8788 4.91584 25.5987 7.65856 28.3414C10.4013 31.0842 14.1212 32.625 18 32.625C21.8788 32.625 25.5987 31.0842 28.3414 28.3414C31.0842 25.5987 32.625 21.8788 32.625 18ZM0 18C0 13.2261 1.89642 8.64773 5.27208 5.27208C8.64773 1.89642 13.2261 0 18 0C22.7739 0 27.3523 1.89642 30.7279 5.27208C34.1036 8.64773 36 13.2261 36 18C36 22.7739 34.1036 27.3523 30.7279 30.7279C27.3523 34.1036 22.7739 36 18 36C13.2261 36 8.64773 34.1036 5.27208 30.7279C1.89642 27.3523 0 22.7739 0 18ZM12.4875 22.3664C13.5563 23.5195 15.3844 24.75 18 24.75C20.6156 24.75 22.4438 23.5195 23.5125 22.3664C24.1453 21.6844 25.2141 21.6352 25.8961 22.268C26.5781 22.9008 26.6273 23.9695 25.9945 24.6516C24.4477 26.325 21.7758 28.125 18.007 28.125C14.2383 28.125 11.5594 26.332 10.0195 24.6516C9.38672 23.9695 9.42891 22.9008 10.118 22.268C10.807 21.6352 11.8688 21.6773 12.5016 22.3664H12.4875ZM10.1531 14.625C10.1531 14.0283 10.3902 13.456 10.8121 13.034C11.2341 12.6121 11.8064 12.375 12.4031 12.375C12.9999 12.375 13.5722 12.6121 13.9941 13.034C14.4161 13.456 14.6531 14.0283 14.6531 14.625C14.6531 15.2217 14.4161 15.794 13.9941 16.216C13.5722 16.6379 12.9999 16.875 12.4031 16.875C11.8064 16.875 11.2341 16.6379 10.8121 16.216C10.3902 15.794 10.1531 15.2217 10.1531 14.625ZM23.6531 12.375C24.2499 12.375 24.8222 12.6121 25.2441 13.034C25.6661 13.456 25.9031 14.0283 25.9031 14.625C25.9031 15.2217 25.6661 15.794 25.2441 16.216C24.8222 16.6379 24.2499 16.875 23.6531 16.875C23.0564 16.875 22.4841 16.6379 22.0621 16.216C21.6402 15.794 21.4031 15.2217 21.4031 14.625C21.4031 14.0283 21.6402 13.456 22.0621 13.034C22.4841 12.6121 23.0564 12.375 23.6531 12.375Z" fill="#FFB187"/>
</g>
<defs>
<clipPath id="clip0_9_12">
<rect width="36" height="36" fill="white"/>
</clipPath>
</defs>
</svg>
