<svg width="36" height="36" viewBox="0 0 36 36" fill="none" xmlns="http://www.w3.org/2000/svg">
<g id="fa6-regular:face-laugh" clip-path="url(#clip0_9_10)">
<path id="Vector" d="M32.625 18C32.625 14.1212 31.0842 10.4013 28.3414 7.65856C25.5987 4.91584 21.8788 3.375 18 3.375C14.1212 3.375 10.4013 4.91584 7.65856 7.65856C4.91584 10.4013 3.375 14.1212 3.375 18C3.375 21.8788 4.91584 25.5987 7.65856 28.3414C10.4013 31.0842 14.1212 32.625 18 32.625C21.8788 32.625 25.5987 31.0842 28.3414 28.3414C31.0842 25.5987 32.625 21.8788 32.625 18ZM0 18C0 13.2261 1.89642 8.64773 5.27208 5.27208C8.64773 1.89642 13.2261 0 18 0C22.7739 0 27.3523 1.89642 30.7279 5.27208C34.1036 8.64773 36 13.2261 36 18C36 22.7739 34.1036 27.3523 30.7279 30.7279C27.3523 34.1036 22.7739 36 18 36C13.2261 36 8.64773 34.1036 5.27208 30.7279C1.89642 27.3523 0 22.7739 0 18ZM9.18984 22.0711C8.89453 21.1148 9.68906 20.25 10.6875 20.25H25.6289C26.6273 20.25 27.4219 21.1219 27.1266 22.0711C25.9453 25.9031 22.3734 28.6875 18.1547 28.6875C13.9359 28.6875 10.3641 25.9031 9.18984 22.0711ZM10.1531 13.5C10.1531 12.9033 10.3902 12.331 10.8121 11.909C11.2341 11.4871 11.8064 11.25 12.4031 11.25C12.9999 11.25 13.5722 11.4871 13.9941 11.909C14.4161 12.331 14.6531 12.9033 14.6531 13.5C14.6531 14.0967 14.4161 14.669 13.9941 15.091C13.5722 15.5129 12.9999 15.75 12.4031 15.75C11.8064 15.75 11.2341 15.5129 10.8121 15.091C10.3902 14.669 10.1531 14.0967 10.1531 13.5ZM23.6531 11.25C24.2499 11.25 24.8222 11.4871 25.2441 11.909C25.6661 12.331 25.9031 12.9033 25.9031 13.5C25.9031 14.0967 25.6661 14.669 25.2441 15.091C24.8222 15.5129 24.2499 15.75 23.6531 15.75C23.0564 15.75 22.4841 15.5129 22.0621 15.091C21.6402 14.669 21.4031 14.0967 21.4031 13.5C21.4031 12.9033 21.6402 12.331 22.0621 11.909C22.4841 11.4871 23.0564 11.25 23.6531 11.25Z" fill="#EF9595"/>
</g>
<defs>
<clipPath id="clip0_9_10">
<rect width="36" height="36" fill="white"/>
</clipPath>
</defs>
</svg>
