<svg width="13" height="14" viewBox="0 0 13 14" fill="none" xmlns="http://www.w3.org/2000/svg">
<path d="M6.15555 0.98C6.40888 0.899999 6.69555 0.833333 7.01555 0.78C7.34888 0.726667 7.64888 0.7 7.91555 0.7C8.22221 0.7 8.51555 0.733333 8.79555 0.8C9.08888 0.853333 9.34888 0.953333 9.57555 1.1C9.80221 1.23333 9.98221 1.42 10.1155 1.66C10.2489 1.9 10.3155 2.2 10.3155 2.56V7.88H12.0955C12.1755 8.02667 12.2555 8.22 12.3355 8.46C12.4155 8.7 12.4555 8.95333 12.4555 9.22C12.4555 9.72667 12.3422 10.0867 12.1155 10.3C11.8889 10.5133 11.6022 10.62 11.2555 10.62H10.3155V12.98C10.1689 13.0067 9.94888 13.04 9.65555 13.08C9.36221 13.1333 9.08221 13.16 8.81555 13.16C8.52221 13.16 8.26221 13.1467 8.03555 13.12C7.80888 13.0933 7.61555 13.0333 7.45555 12.94C7.30888 12.8333 7.19555 12.6867 7.11555 12.5C7.03555 12.3133 6.99555 12.06 6.99555 11.74V10.62H1.97555C1.66888 10.46 1.40221 10.2267 1.17555 9.92C0.962214 9.6 0.855547 9.21333 0.855547 8.76C0.855547 8.50667 0.88888 8.22667 0.955547 7.92C1.02221 7.61333 1.13555 7.34667 1.29555 7.12L6.15555 0.98ZM7.17555 4.12H7.11555L4.45555 7.88H7.17555V4.12Z" fill="#B7B7B7"/>
</svg>
