<svg width="7" height="14" viewBox="0 0 7 14" fill="none" xmlns="http://www.w3.org/2000/svg">
<path d="M3.17422 4.08L1.17422 4.7C0.974219 4.56667 0.774219 4.38 0.574219 4.14C0.374219 3.9 0.274219 3.56667 0.274219 3.14C0.274219 2.34 0.760885 1.78 1.73422 1.46L3.97422 0.7H4.71422C5.28755 0.7 5.74089 0.866666 6.07422 1.2C6.40755 1.53333 6.57422 1.98667 6.57422 2.56V12.98C6.42755 13.0067 6.20755 13.04 5.91422 13.08C5.63422 13.1333 5.34755 13.16 5.05422 13.16C4.76089 13.16 4.49422 13.14 4.25422 13.1C4.02755 13.06 3.83422 12.98 3.67422 12.86C3.51422 12.74 3.38755 12.58 3.29422 12.38C3.21422 12.1667 3.17422 11.8933 3.17422 11.56V4.08Z" fill="#B7B7B7"/>
</svg>
