<svg width="11" height="13" viewBox="0 0 11 13" fill="none" xmlns="http://www.w3.org/2000/svg">
<path d="M5.09539 0.539999C5.85539 0.539999 6.52872 0.639999 7.11539 0.839999C7.70206 1.02667 8.20206 1.28667 8.61539 1.62C9.02872 1.95333 9.34206 2.34667 9.55539 2.8C9.76872 3.25333 9.87539 3.74 9.87539 4.26C9.87539 5.66 9.08206 6.99333 7.49539 8.26L4.87539 10.36H9.67539C9.75539 10.5067 9.82872 10.6933 9.89539 10.92C9.97539 11.1467 10.0154 11.3933 10.0154 11.66C10.0154 12.14 9.90872 12.4867 9.69539 12.7C9.48206 12.9 9.20206 13 8.85539 13H1.91539C1.62206 12.8 1.38872 12.5467 1.21539 12.24C1.05539 11.92 0.975391 11.5467 0.975391 11.12C0.975391 10.6667 1.06872 10.2867 1.25539 9.98C1.44206 9.66 1.64872 9.40667 1.87539 9.22L4.63539 6.86C4.98206 6.56667 5.26872 6.30667 5.49539 6.08C5.72206 5.84 5.90206 5.62667 6.03539 5.44C6.18206 5.25333 6.28206 5.08 6.33539 4.92C6.40206 4.76 6.43539 4.60667 6.43539 4.46C6.43539 4.08667 6.26872 3.79333 5.93539 3.58C5.61539 3.36667 5.21539 3.26 4.73539 3.26C4.20206 3.26 3.72206 3.34667 3.29539 3.52C2.88206 3.68 2.53539 3.85333 2.25539 4.04C2.02872 3.88 1.84206 3.68 1.69539 3.44C1.54872 3.2 1.47539 2.92 1.47539 2.6C1.47539 1.90667 1.80206 1.39333 2.45539 1.06C3.10872 0.713333 3.98872 0.539999 5.09539 0.539999Z" fill="#B7B7B7"/>
</svg>
