<svg width="10" height="14" viewBox="0 0 10 14" fill="none" xmlns="http://www.w3.org/2000/svg">
<path d="M4.98422 0.539999C6.51755 0.539999 7.68422 0.859999 8.48422 1.5C9.28422 2.12667 9.68422 2.97333 9.68422 4.04C9.68422 4.68 9.51089 5.22667 9.16422 5.68C8.83089 6.12 8.43089 6.45333 7.96422 6.68C8.24422 6.78667 8.50422 6.92 8.74422 7.08C8.98422 7.24 9.19755 7.44 9.38422 7.68C9.57089 7.92 9.71755 8.2 9.82422 8.52C9.93089 8.84 9.98422 9.21333 9.98422 9.64C9.98422 10.2133 9.85755 10.7267 9.60422 11.18C9.36422 11.6333 9.02422 12.02 8.58422 12.34C8.14422 12.66 7.61755 12.9 7.00422 13.06C6.40422 13.2333 5.74422 13.32 5.02422 13.32C3.63755 13.32 2.59089 13.1267 1.88422 12.74C1.17755 12.3533 0.824219 11.86 0.824219 11.26C0.824219 10.9 0.910885 10.5933 1.08422 10.34C1.25755 10.0733 1.47089 9.86667 1.72422 9.72C1.99089 9.90667 2.34422 10.1067 2.78422 10.32C3.23755 10.52 3.82422 10.62 4.54422 10.62C5.22422 10.62 5.72422 10.5 6.04422 10.26C6.37755 10.02 6.54422 9.70667 6.54422 9.32C6.54422 8.93333 6.41089 8.64 6.14422 8.44C5.89089 8.24 5.44422 8.14 4.80422 8.14H2.92422C2.83089 7.99333 2.75089 7.81333 2.68422 7.6C2.61755 7.38667 2.58422 7.13333 2.58422 6.84C2.58422 6.53333 2.61089 6.27333 2.66422 6.06C2.73089 5.83333 2.81755 5.64667 2.92422 5.5H4.80422C5.76422 5.5 6.24422 5.13333 6.24422 4.4C6.24422 4.05333 6.09089 3.77333 5.78422 3.56C5.47755 3.34667 5.01755 3.24 4.40422 3.24C3.85755 3.24 3.37755 3.30667 2.96422 3.44C2.55089 3.56 2.21089 3.71333 1.94422 3.9C1.71755 3.74 1.53089 3.54667 1.38422 3.32C1.23755 3.08 1.16422 2.8 1.16422 2.48C1.16422 1.81333 1.51089 1.32667 2.20422 1.02C2.89755 0.699999 3.82422 0.539999 4.98422 0.539999Z" fill="#B7B7B7"/>
</svg>
